<svg xmlns="http://www.w3.org/2000/svg" x="0px" y="0px"
width="64" height="64"
viewBox="0 0 172 172"
style=" fill:#000000;"><defs><linearGradient x1="60.86919" y1="71.06288" x2="61.42819" y2="107.32262" gradientUnits="userSpaceOnUse" id="color-1_CRCaZsaznEHH_gr1"><stop offset="0" stop-color="#d9f7ee"></stop><stop offset="1" stop-color="#2df19b"></stop></linearGradient><linearGradient x1="109.80856" y1="70.31037" x2="110.36756" y2="106.57013" gradientUnits="userSpaceOnUse" id="color-2_CRCaZsaznEHH_gr2"><stop offset="0" stop-color="#d9f7ee"></stop><stop offset="1" stop-color="#2df19b"></stop></linearGradient><linearGradient x1="87.28463" y1="27.63825" x2="87.28463" y2="142.072" gradientUnits="userSpaceOnUse" id="color-3_CRCaZsaznEHH_gr3"><stop offset="0" stop-color="#7de3c3"></stop><stop offset="1" stop-color="#0ba360"></stop></linearGradient></defs><g fill="none" fill-rule="nonzero" stroke="none" stroke-width="1" stroke-linecap="butt" stroke-linejoin="miter" stroke-miterlimit="10" stroke-dasharray="" stroke-dashoffset="0" font-family="none" font-weight="none" font-size="none" text-anchor="none" style="mix-blend-mode: normal"><path d="M0,172v-172h172v172z" fill="none"></path><g><path d="M61.14331,73.23975c-7.06544,0 -12.88119,7.00094 -12.88119,15.50687c0,8.50594 5.81575,15.50688 12.88119,15.50688c7.06544,0 12.88119,-7.00094 12.88119,-15.50687c0,-8.50594 -5.81575,-15.50688 -12.88119,-15.50688z" fill="url(#color-1_CRCaZsaznEHH_gr1)"></path><path d="M110.09344,73.23975c-7.06813,0 -12.88119,7.00094 -12.88119,15.50687c0,8.50594 5.81575,15.50688 12.88119,15.50688c7.06544,0 12.88119,-7.00094 12.88119,-15.50687c0,-8.50594 -5.81575,-15.50688 -12.88119,-15.50688z" fill="url(#color-2_CRCaZsaznEHH_gr2)"></path><path d="M140.42725,38.21088c-0.2795,-0.40313 -0.66919,-0.72563 -1.12069,-0.92181c-12.57481,-5.53894 -22.39763,-8.6 -30.91969,-9.632c-1.10994,-0.12631 -2.22256,0.45419 -2.7305,1.47275l-2.95625,5.95013c-4.68969,-0.55631 -9.66156,-0.74981 -15.34831,-0.59125c-5.81575,-0.15319 -10.79569,0.03762 -15.49075,0.59125l-2.95625,-5.95012c-0.50525,-1.01856 -1.60712,-1.59906 -2.7305,-1.47275c-8.51669,1.032 -18.34219,4.09306 -30.91969,9.632c-0.4515,0.19888 -0.8385,0.51869 -1.12069,0.92181c-17.54131,25.17381 -24.5315,52.47881 -21.371,83.47913c0.08331,0.80894 0.52675,1.53456 1.20669,1.978c13.72237,8.944 25.56619,14.75437 37.26756,18.29113c1.19056,0.35744 2.45906,-0.13975 3.08794,-1.204l8.49787,-14.34319c7.75612,2.46175 15.88044,3.74369 24.04775,3.74369c7.0305,0 14.02606,-0.97288 20.78781,-2.80575c1.34375,-0.32787 2.69019,-0.63962 4.01781,-1.02662l8.54894,14.43188c0.4945,0.83312 1.38138,1.31688 2.31125,1.31688c0.258,0 0.51869,-0.03763 0.77669,-0.11288c11.70406,-3.53406 23.54788,-9.34713 37.27025,-18.29113c0.67994,-0.44344 1.12338,-1.17175 1.20669,-1.978c3.16856,-31.00031 -3.82431,-58.308 -21.36294,-83.47912zM156.57913,119.86519c-12.03731,7.75344 -22.54812,12.986 -32.80363,16.3185l-7.04125,-11.88413c2.76812,-1.12337 5.48519,-2.37844 8.11625,-3.81087c1.30075,-0.7095 1.7845,-2.3435 1.07231,-3.64694c-0.70681,-1.30075 -2.33544,-1.7845 -3.64425,-1.075c-5.27556,2.87294 -10.89244,5.074 -16.68669,6.58975c-5.96356,1.3975 -12.00237,2.16612 -18.30725,2.3005c-8.4925,-0.18006 -16.84525,-1.55338 -24.82444,-4.07963c-0.02956,-0.00806 -0.05912,-0.00269 -0.086,-0.01075c-3.74369,-1.3115 -7.39869,-2.89175 -10.88975,-4.79719c-1.3115,-0.7095 -2.94013,-0.22575 -3.64425,1.075c-0.71219,1.30344 -0.22844,2.93744 1.07231,3.64694c2.83531,1.54531 5.76469,2.90519 8.76125,4.08769l-6.87731,11.60731c-10.25281,-3.33519 -20.76094,-8.56506 -32.80094,-16.3185c-2.68212,-28.88256 3.90763,-54.40575 20.12938,-77.96169c10.81988,-4.72462 19.42794,-7.5035 26.83469,-8.65375l2.94819,5.934c0.51331,1.03469 1.62862,1.62056 2.78425,1.46469c4.95844,-0.70413 10.20713,-0.95675 16.66519,-0.79281c6.31563,-0.16125 11.56969,0.08869 16.52275,0.79281c1.15563,0.15587 2.27094,-0.43 2.78425,-1.46469l2.94819,-5.934c7.41213,1.15025 16.0175,3.92912 26.83469,8.65375c16.21906,23.55056 22.8115,49.07375 20.13206,77.959z" fill="url(#color-3_CRCaZsaznEHH_gr3)"></path></g></g></svg>