<svg xmlns="http://www.w3.org/2000/svg" x="0px" y="0px"
width="64" height="64"
viewBox="0 0 172 172"
style=" fill:#000000;"><defs><linearGradient x1="86" y1="26.703" x2="86" y2="140.27406" gradientUnits="userSpaceOnUse" id="color-1_bYzsf9Bmocst_gr1"><stop offset="0" stop-color="#7de3c3"></stop><stop offset="1" stop-color="#0ba360"></stop></linearGradient><linearGradient x1="104.55181" y1="26.703" x2="104.55181" y2="140.27406" gradientUnits="userSpaceOnUse" id="color-2_bYzsf9Bmocst_gr2"><stop offset="0" stop-color="#7de3c3"></stop><stop offset="1" stop-color="#0ba360"></stop></linearGradient><linearGradient x1="112.875" y1="48.31856" x2="112.875" y2="57.8565" gradientUnits="userSpaceOnUse" id="color-3_bYzsf9Bmocst_gr3"><stop offset="0" stop-color="#d9f7ee"></stop><stop offset="1" stop-color="#2df19b"></stop></linearGradient></defs><g fill="none" fill-rule="nonzero" stroke="none" stroke-width="1" stroke-linecap="butt" stroke-linejoin="miter" stroke-miterlimit="10" stroke-dasharray="" stroke-dashoffset="0" font-family="none" font-weight="none" font-size="none" text-anchor="none" style="mix-blend-mode: normal"><path d="M0,172v-172h172v172z" fill="none"></path><g><path d="M154.78656,43.23113c-0.76863,-0.91644 -2.04788,-1.20938 -3.14437,-0.72831c-1.65013,0.72831 -3.34594,1.376 -5.08206,1.93231c2.2145,-2.78156 3.92912,-5.9555 5.03637,-9.38206c0.34131,-1.06425 -0.00537,-2.22256 -0.87613,-2.92131c-0.87075,-0.70144 -2.08012,-0.79281 -3.03956,-0.22306c-4.77569,2.79769 -9.8685,4.80525 -15.16019,5.97431c-5.55237,-5.30513 -13.06394,-8.3205 -20.84156,-8.3205c-16.57919,0 -30.07044,13.37837 -30.07044,29.82319c0,1.08575 0.05912,2.17687 0.18006,3.26263c-19.91437,-1.89469 -38.40169,-11.67181 -51.13506,-27.15181c-0.55631,-0.67725 -1.39213,-1.03469 -2.28438,-0.97287c-0.87344,0.06719 -1.66088,0.55631 -2.107,1.3115c-2.66869,4.51231 -4.08231,9.70994 -4.08231,15.03119c0,6.57631 2.16881,12.84625 6.03881,17.9525c-0.78475,-0.33056 -1.55606,-0.69875 -2.30856,-1.10725c-0.83581,-0.44881 -1.84362,-0.43269 -2.65525,0.05644c-0.81431,0.48644 -1.3115,1.36256 -1.3115,2.30856v0.31981c0,9.96525 5.02025,19.00869 12.86237,24.467c-0.03225,-0.00538 -0.0645,-0.01344 -0.09675,-0.01881c-0.94062,-0.17469 -1.87856,0.16662 -2.49937,0.87881c-0.62081,0.71219 -0.82238,1.69581 -0.53213,2.59613c3.17663,9.804 11.15044,17.12206 20.87919,19.70475c-8.07056,4.75956 -17.20269,7.24819 -26.75944,7.24819c-2.11237,0 -4.20056,-0.12363 -6.20275,-0.36819c-1.25506,-0.15856 -2.43487,0.58588 -2.85681,1.76569c-0.42194,1.1825 0.03225,2.50206 1.09381,3.17394c13.01556,8.23987 28.02794,12.59362 43.41656,12.59362c50.44975,0 80.59544,-40.63231 80.59544,-79.9155c0,-0.72831 -0.01344,-1.45394 -0.03763,-2.17687c5.12506,-3.82431 9.546,-8.48981 13.158,-13.89169c0.66381,-0.99438 0.59125,-2.30588 -0.17737,-3.22231zM137.51131,56.82181c-0.74981,0.52944 -1.17713,1.40556 -1.13412,2.32469c0.05375,1.11531 0.09137,2.24137 0.09137,3.3755c0,36.63869 -28.13544,74.5405 -75.22044,74.5405c-10.70162,0 -21.21512,-2.2575 -30.90356,-6.58975c11.35738,-0.86269 22.03213,-4.97188 31.10781,-12.00775c0.90031,-0.69875 1.26313,-1.88662 0.903,-2.967c-0.36013,-1.08037 -1.35988,-1.81944 -2.49938,-1.84362c-9.08644,-0.17469 -17.21075,-5.246 -21.36025,-12.99406c2.99656,0.10213 5.92056,-0.26606 8.80425,-1.05619c1.20131,-0.33056 2.01831,-1.44319 1.97531,-2.6875c-0.04569,-1.247 -0.94063,-2.29512 -2.16075,-2.53969c-10.13994,-2.021 -17.8235,-10.13994 -19.46825,-20.01919c3.01537,1.08306 6.17319,1.69581 9.32025,1.79256c1.23356,0.02956 2.279,-0.72831 2.64181,-1.8705c0.3655,-1.14487 -0.07256,-2.39187 -1.07231,-3.05569c-6.87463,-4.56338 -10.97575,-12.17438 -10.97575,-20.35781c0,-3.05031 0.56438,-6.04687 1.65012,-8.83381c14.29481,15.66006 34.357,25.15769 55.66888,26.23c0.8815,0.05912 1.65819,-0.31175 2.19569,-0.95944c0.54287,-0.64769 0.74712,-1.51306 0.55631,-2.33275c-0.43,-1.84094 -0.645,-3.7195 -0.645,-5.58194c0,-13.4805 11.07787,-24.44819 24.69544,-24.44819c6.81819,0 13.38106,2.81381 18.00625,7.71581c0.63156,0.6665 1.56144,0.96481 2.46444,0.7955c3.72219,-0.71756 7.36106,-1.80331 10.879,-3.24919c-1.95919,2.70631 -4.47469,5.01219 -7.41481,6.75637c-1.09381,0.65038 -1.58294,1.97531 -1.17175,3.182c0.41119,1.20131 1.60444,1.96188 2.87025,1.79794c2.5585,-0.31444 5.06863,-0.78475 7.51694,-1.41094c-2.23331,2.32469 -4.67894,4.429 -7.32075,6.29412z" fill="url(#color-1_bYzsf9Bmocst_gr1)"></path><path d="M82.69975,123.04988l1.66894,5.10625c19.14306,-6.25113 34.4645,-21.26888 42.03788,-41.19938l-5.02294,-1.91081c-4.11187,10.81987 -14.60119,30.13763 -38.68387,38.00394z" fill="url(#color-2_bYzsf9Bmocst_gr2)"></path><g fill="url(#color-3_bYzsf9Bmocst_gr3)"><circle cx="42" cy="20" transform="scale(2.6875,2.6875)" r="2"></circle></g></g></g></svg>